<svg viewBox="0 0 177 171" xmlns="http://www.w3.org/2000/svg"><ellipse cx="88.74" cy="159.5" rx="83.5" ry="7.5" fill="#cde5f9"/><path fill="#fff" d="M136.62 130.99h-3.76v-13.28h3.76z"/><path d="M124.91 116.24h19.38a3.6 3.6 0 0 0 3.6-3.6 3.61 3.61 0 0 0-3.6-3.61h-19.38a3.61 3.61 0 0 0-3.6 3.61 3.6 3.6 0 0 0 3.6 3.6z" fill="#bdd9f4"/><path fill="#bdd9f4" d="M138.07 119.27h-6.87v-4.72h6.87zM138.07 149.48h-6.87v-20.65h6.87z"/><path fill="#91bfe5" d="M154.44 149.8h-38.82v-2.87h38.82z"/><path fill="#91bfe5" d="M154.44 155.86h-2.28v-8.93h2.28z"/><path d="M149.92 155.87a3.57 3.57 0 1 0 3.57-3.57 3.56 3.56 0 0 0-3.57 3.57z" fill="#91bfe5"/><path fill="#1c2e34" d="M117.9 155.86h-2.28v-8.93h2.28z"/><path d="M110.6 106.4a19.94 19.94 0 0 0 19.92-19.92V53.83a3.36 3.36 0 0 1 3.36-3.37h35.94l-2.18 26.37 1 19.83-17.92 11.42-4.23 5H110.6a3.37 3.37 0 1 1 0-6.73Z" fill="#91bfe5"/><path d="M146.53 113.13a26.68 26.68 0 0 0 26.66-26.65V53.83a3.37 3.37 0 1 0-6.74 0v32.65a19.93 19.93 0 0 1-19.92 19.92 3.37 3.37 0 0 0 0 6.73Z" fill="#bdd9f4"/><path fill="#ffd1b8" d="m88.7 151.51.29-19.3 9.79-.52-.27 20.72-9.45.06z"/><path d="M99.88 148.36s-8.1 3.33-11.9-1.92L71.3 156.57l31.09-.2Z" fill="#0b181b"/><path fill="#fff" d="m71.299 156.566 31.09-.2.018 2.86-31.09.2zM88.18 150.87a.48.48 0 0 1-.23-.17 11.38 11.38 0 0 0-2.56-2.5.5.5 0 0 1-.15-.72.58.58 0 0 1 .76-.15 12.24 12.24 0 0 1 2.84 2.75.51.51 0 0 1-.12.73.55.55 0 0 1-.54.06ZM85.5 152.21a.6.6 0 0 1-.22-.17 11.29 11.29 0 0 0-2.57-2.5.51.51 0 0 1-.15-.73.57.57 0 0 1 .76-.14 12.16 12.16 0 0 1 2.85 2.75.51.51 0 0 1-.13.73.55.55 0 0 1-.54.06ZM82.83 153.55a.66.66 0 0 1-.23-.17 11.38 11.38 0 0 0-2.56-2.5.51.51 0 0 1-.15-.73.56.56 0 0 1 .76-.14 12 12 0 0 1 2.84 2.75.51.51 0 0 1-.12.73.58.58 0 0 1-.54.06Z"/><path d="m124.46 87.37-4.59 3.85c1.33 8.21 5.76 15.66-2.56 15.66h-14.75v33.93L86 141l-.92-41.56a11.82 11.82 0 0 1 11.8-12Z" fill="#009aef"/><path fill="#ffd1b8" d="m115.22 151.51.29-19.3 9.79-.52-.27 20.72-9.45.06z"/><path d="M126.4 148.36s-8.1 3.33-11.9-1.92l-16.68 10.13 31.09-.2Z" fill="#0b181b"/><path fill="#fff" d="m97.818 156.565 31.09-.2.018 2.86-31.09.2zM114.7 150.87a.48.48 0 0 1-.23-.17 11.38 11.38 0 0 0-2.56-2.5.5.5 0 0 1-.15-.72.58.58 0 0 1 .76-.15 12.24 12.24 0 0 1 2.84 2.75.51.51 0 0 1-.12.73.55.55 0 0 1-.54.06ZM112 152.21a.6.6 0 0 1-.22-.17 11.29 11.29 0 0 0-2.57-2.5.51.51 0 0 1-.15-.73.57.57 0 0 1 .76-.14 12.16 12.16 0 0 1 2.85 2.75.51.51 0 0 1-.13.73.55.55 0 0 1-.54.06ZM109.35 153.55a.66.66 0 0 1-.23-.17 11.38 11.38 0 0 0-2.56-2.5.51.51 0 0 1-.15-.73.56.56 0 0 1 .76-.14 12 12 0 0 1 2.84 2.75.51.51 0 0 1-.12.73.58.58 0 0 1-.54.06Z"/><path d="m145.29 87.37.63 3.85a13.49 13.49 0 0 1-13.32 15.66h-4v33.93l-16.55.22-.93-41.56a11.83 11.83 0 0 1 11.81-12Z" fill="#3ea8ff"/><path d="M76.11 75.59c3.55-.9 7.1.6 8.48 1.29l16-3.36 2.28-16.87h10.84s-2.74 23.55-2.5 24.26c0 .14-.36 0-1-.27l-.33 1.72-21.26-.3-18.14.23c-.3-3.07 2.65-5.93 5.63-6.7Z" fill="#ffd1b8"/><path d="M112.8 40.85s-8.19 1.29-10 8.27c-2.44 9.1-3.36 10.41-3.36 10.41l12.37 1.8z" fill="#fff"/><path d="m128.53 38.53-15.73 2.32a3.28 3.28 0 0 0-2.8 3.21l-.37 37.31 35.09.1 2.38-32.55-1.31-4.41a5.59 5.59 0 0 0-4.47-3.93Z" fill="#fff"/><path d="M111.49 77.39c4.46-.84 9.85 1.27 9.85 1.27l22.92-5.1-5.46-14.13 12.77-4.06 3.93 12.22c5.95 13.9-6.16 16.35-6.16 16.35l-24.71-.17-18 .17a6.12 6.12 0 0 1 4.86-6.55z" fill="#ffd1b8"/><path fill="none" stroke="#3c4649" stroke-miterlimit="10" stroke-width=".5" d="m144.26 73.56 5.66-.79"/><path d="M132.43 39.85s12.21-.11 15.25 3.5C151.5 47.89 156 59.5 156 59.5l-19.86 4.38Z" fill="#fff"/><path d="m119.74 39.83 2.83-.42v-.72l.32-8.31 8.95-3.72.09 12.41 3.22.52s-1.07 5.8-8.5 5.58-6.91-5.34-6.91-5.34z" fill="#ffd1b8"/><path d="M118 10.75s-6.23 5.86-.09 8Z" fill="#c56100"/><path d="M121.74 21.19a4.18 4.18 0 1 1-4.29-4.19 4.27 4.27 0 0 1 4.29 4.19z" fill="#009aef"/><path d="M122.64 35.9s6.74.84 9.15-6.7c.75-2.37-8.9.33-8.9.33Z" fill="#0b181b"/><path d="M125.27 32.9c-4.74-.18-8.51-4.19-8.49-8.2l.09-8.38A9.21 9.21 0 0 1 125.63 7c5-.15 10 3.86 10.14 9l-.15 6.53a10.44 10.44 0 0 1-10.35 10.37Z" fill="#ffd1b8"/><path fill="none" stroke="#0b181b" stroke-linecap="round" stroke-linejoin="round" stroke-width=".53" d="m121.77 22.43-.23 1.61 1.18.09"/><path d="M127 17.53s-1.94-.24-2 .57c0 0 0 .56 1.67.74s2.14.06 2.31-.45-.98-.82-1.98-.86ZM119.2 17.26s1.61-.11 1.71.67c0 0 0 .52-1.36.58s-1.86-.14-2-.57.88-.7 1.65-.68Z" fill="#c56100"/><path d="M120.2 20.71a.82.82 0 1 1-.8-.85.81.81 0 0 1 .8.85ZM127.36 20.75a.82.82 0 1 1-.81-.85.83.83 0 0 1 .81.85Z" fill="#0b181b"/><path d="m111.88 7.93 3.6-.51-2.1-1.33a19.06 19.06 0 0 1 5.72-.84 17 17 0 0 1 7.72-2c4.19 0 7.75 2.22 9.05 4.71a3.82 3.82 0 0 1 3.94 3.71c.62 5.09-5.51 13.5-5.51 13.5l-.68-6.65c-3.8-.27-4-3.62-3.68-5.8a46.05 46.05 0 0 1-12.21-.5 5.48 5.48 0 0 1-1.76-.48c-2.18-.74-3.8-1.93-4.09-3.81Z" fill="#c56100"/><path d="M140 22.56a3.4 3.4 0 0 1-3.24 3.55 3.36 3.36 0 0 1-3.43-3.34 3.34 3.34 0 1 1 6.67-.21Z" fill="#ffba99"/><path d="M135.54 23.53s-.07-2.5 2.25-2.18" fill="none" stroke="#312220" stroke-linecap="round" stroke-linejoin="round" stroke-width=".56"/><path d="m123.7 3.15-.11.48s6 .63 8.78 4.3c3.07 4.08 3.11 9.59 3.11 9.59l1.31.11-.09-8.73-2.61-2.73-4.17-2.49-2.92-.93Z" fill="#009aef"/><path d="M131.86 20.7c-.63 2.87 1.23 5.71 4.87 6.5 2.57.56 3.83-1.6 4.45-4.47a4.8 4.8 0 1 0-9.32-2Z" fill="#009aef"/><path d="M132.37 6.52c-2.81-3.13-8.67-3.37-8.67-3.37a4.32 4.32 0 0 1 .83-.52 6.76 6.76 0 0 1 3.86-.44l1.07.17a10.91 10.91 0 0 1 8.94 8.38 20.44 20.44 0 0 1 .34 6h.24a5.06 5.06 0 0 1 3.54 6.26 4.8 4.8 0 1 1-9.33-2 5.5 5.5 0 0 1 3-3.87 16 16 0 0 0-3.82-10.61Z" fill="#3ea8ff"/><path fill="#bdd9f4" d="m95.19 65.03-3.12 2.24-22.13-18.68-53.9-29.76 2.91-2.11 36.97 11.36z"/><path d="M87.55 18.44 96.32 62a3 3 0 0 1-2.95 3.61H30.2a3 3 0 0 1-2.94-2.38l-9.34-43.6A3 3 0 0 1 20.87 16h63.72a3 3 0 0 1 2.96 2.44Z" fill="#bdd9f4"/><path d="m84.7 20.5 8.78 43.6a3 3 0 0 1-3 3.6H27.35a3 3 0 0 1-2.94-2.38l-9.34-43.6A3 3 0 0 1 18 18.08h63.75a3 3 0 0 1 2.95 2.42Z" fill="#fff"/><path fill="#91bfe5" d="m61.7 56.18 1.18 11.52h-5.12z"/><circle cx="51.69" cy="36.08" r="4.23" fill="#fff"/><path d="M26.12 79.35h12.12l8.11-23.41h15.36L57 79.35h14.08a1.25 1.25 0 0 1 0 2.5h-45a1.25 1.25 0 0 1 0-2.5ZM82.16 79.35H106a1.25 1.25 0 0 1 1.25 1.25 1.25 1.25 0 0 1-1.25 1.25H82.16a1.25 1.25 0 0 1-1.24-1.25 1.25 1.25 0 0 1 1.24-1.25z" fill="#bdd9f4"/><path fill="none" stroke="#91bfe5" stroke-linecap="round" stroke-miterlimit="10" stroke-width="3" d="M20.35 84.82V156M67.01 85.82v75.61"/><path fill="#fff" d="M151.09 87.67v-5.92h-44.14v5.92"/><path fill="#fff" d="M125.04 87.68H9.36v-5.92h115.68z"/><path d="M121 26.77s.32.76 1.72.76a2.32 2.32 0 0 0 1.84-.76" fill="none" stroke="#0b181b" stroke-linecap="round" stroke-linejoin="round" stroke-width=".53"/></svg>