<svg xmlns="http://www.w3.org/2000/svg" width="24" viewBox="0 0 27 27"><path fill="currentColor" d="M8.94 24.13a3.53 3.53 0 0 1-3.41-2.67h-1a.85.85 0 1 1 0-1.7h1a3.52 3.52 0 0 1 6.83 0h9.92a.85.85 0 0 1 0 1.7h-9.92a3.53 3.53 0 0 1-3.42 2.67Zm0-5.33a1.82 1.82 0 1 0 1.82 1.81 1.81 1.81 0 0 0-1.82-1.81Zm8.9-1.89a3.53 3.53 0 0 1-3.42-2.67H4.5a.85.85 0 0 1 0-1.7h9.92a3.52 3.52 0 0 1 6.83 0h1a.85.85 0 1 1 0 1.7h-1a3.53 3.53 0 0 1-3.41 2.67Zm0-5.34a1.82 1.82 0 1 0 1.81 1.82 1.82 1.82 0 0 0-1.81-1.82Zm-8.9-1.89A3.52 3.52 0 0 1 5.53 7h-1a.85.85 0 0 1 0-1.7h1a3.52 3.52 0 0 1 6.83 0h9.92a.85.85 0 1 1 0 1.7h-9.92a3.52 3.52 0 0 1-3.42 2.68Zm0-5.33a1.82 1.82 0 1 0 1.82 1.82 1.82 1.82 0 0 0-1.82-1.82Z"/></svg>