<svg width="19" height="19" viewBox="0 0 27 27" xmlns="http://www.w3.org/2000/svg"><path d="M6.62 2.44a3.67 3.67 0 0 0-3.08 2.39 11.09 11.09 0 0 0-1 4.94v13.4l2.75 1.38 1.85-.92 1.81.92 1.85-.92 1.82.92 1.87-.92 1.79.92L19 23.17v-6.06h1.83a2.5 2.5 0 0 0 1.72-.77 5.05 5.05 0 0 0 1.07-1.67 12.58 12.58 0 0 0 .88-4.9 12.58 12.58 0 0 0-.88-4.9 5.11 5.11 0 0 0-1.07-1.66 2.5 2.5 0 0 0-1.72-.77zm0 1.83h11.74c-.11.2-.22.39-.31.6a12.58 12.58 0 0 0-.88 4.9V22l-.91.46-1.79-.92-1.88.92-1.83-.92-1.84.92-1.82-.88-1.85.92-.92-.5V9.77a9.5 9.5 0 0 1 .85-4.12c.49-1 1.05-1.38 1.44-1.38zm-2.29 6.42a.92.92 0 1 0 .92-.92.92.92 0 0 0-.92.92zm12.84 0a.92.92 0 1 0-.92.92.92.92 0 0 0 .92-.92zm3.66-6.42c.09 0 .22 0 .43.24a3.61 3.61 0 0 1 .68 1.09 11.1 11.1 0 0 1 .73 4.17 11.16 11.16 0 0 1-.73 4.23 3.53 3.53 0 0 1-.68 1c-.21.21-.34.24-.43.24s-.21 0-.42-.24a3.53 3.53 0 0 1-.68-1A11.16 11.16 0 0 1 19 9.77a11.1 11.1 0 0 1 .73-4.17 3.61 3.61 0 0 1 .68-1.09c.21-.2.33-.24.42-.24zm0 3.37c-.5 0-.91 1-.91 2.13s.41 2.14.91 2.14.92-1 .92-2.14-.41-2.13-.92-2.13zM8.92 9.77a.92.92 0 1 0 .91.92.92.92 0 0 0-.91-.92zm3.66 0a.92.92 0 1 0 .92.92.92.92 0 0 0-.92-.92z" fill="currentColor"/></svg>